<svg id="visual" viewBox="0 0 1920 1080" width="1920" height="1080" xmlns="http://www.w3.org/2000/svg" xmlns:xlink="http://www.w3.org/1999/xlink" version="1.1"><rect x="0" y="0" width="1920" height="1080" fill="#11009E"></rect><defs><linearGradient id="grad1_0" x1="43.8%" y1="0%" x2="100%" y2="100%"><stop offset="14.444444444444446%" stop-color="#11009e" stop-opacity="1"></stop><stop offset="85.55555555555554%" stop-color="#11009e" stop-opacity="1"></stop></linearGradient></defs><defs><linearGradient id="grad2_0" x1="0%" y1="0%" x2="56.3%" y2="100%"><stop offset="14.444444444444446%" stop-color="#11009e" stop-opacity="1"></stop><stop offset="85.55555555555554%" stop-color="#11009e" stop-opacity="1"></stop></linearGradient></defs><g transform="translate(1920, 0)"><path d="M0 594C-61.4 586.7 -122.7 579.3 -182.6 562.1C-242.5 544.8 -301 517.7 -348 478.9C-394.9 440.2 -430.5 389.8 -467.6 339.7C-504.8 289.7 -543.6 240.1 -564.9 183.6C-586.3 127 -590.1 63.5 -594 0L0 0Z" fill="#8696FE"></path></g><g transform="translate(0, 1080)"><path d="M0 -594C65.4 -593.5 130.7 -593 183.6 -564.9C236.4 -536.9 276.7 -481.4 316.8 -436.1C357 -390.8 397 -355.7 432 -313.9C467 -272 496.9 -223.4 523.1 -170C549.2 -116.5 571.6 -58.3 594 0L0 0Z" fill="#8696FE"></path></g></svg>